<svg xmlns="http://www.w3.org/2000/svg" xmlns:xlink="http://www.w3.org/1999/xlink" width="100" zoomAndPan="magnify" viewBox="0 0 75 30.000001" height="40" preserveAspectRatio="xMidYMid meet" version="1.0"><defs><g/><clipPath id="28debea794"><path d="M 1.210938 0 L 73.789062 0 L 73.789062 29.03125 L 1.210938 29.03125 Z M 1.210938 0 " clip-rule="nonzero"/></clipPath><clipPath id="b516fe6d66"><path d="M 14.375 1.214844 L 60.828125 1.214844 L 60.828125 25.890625 L 14.375 25.890625 Z M 14.375 1.214844 " clip-rule="nonzero"/></clipPath></defs><g clip-path="url(#28debea794)"><path fill="#ffffff" d="M 1.210938 0 L 73.789062 0 L 73.789062 36.289062 L 1.210938 36.289062 Z M 1.210938 0 " fill-opacity="1" fill-rule="nonzero"/><path fill="#ffffff" d="M 1.210938 0 L 73.789062 0 L 73.789062 29.03125 L 1.210938 29.03125 Z M 1.210938 0 " fill-opacity="1" fill-rule="nonzero"/><path fill="#ffffff" d="M 1.210938 0 L 73.789062 0 L 73.789062 29.03125 L 1.210938 29.03125 Z M 1.210938 0 " fill-opacity="1" fill-rule="nonzero"/></g><g clip-path="url(#b516fe6d66)"><path fill="#393536" d="M 57.804688 23.453125 C 59.351562 24.320312 60.160156 24.289062 60.382812 24.132812 C 60.441406 24.09375 60.441406 24.058594 60.433594 24.027344 C 60.402344 23.890625 60.140625 23.648438 59.542969 23.539062 C 59.328125 23.5 58.71875 23.472656 57.804688 23.453125 Z M 18.285156 23.453125 C 17.207031 23.453125 16.480469 23.507812 16.1875 23.625 C 15.679688 23.824219 14.804688 24.460938 14.980469 25.09375 C 15.035156 25.304688 15.148438 25.433594 15.328125 25.496094 C 16.21875 25.804688 18.371094 24.464844 19.800781 23.480469 C 19.238281 23.460938 18.730469 23.453125 18.285156 23.453125 Z M 15.617188 25.890625 C 15.46875 25.890625 15.332031 25.871094 15.207031 25.828125 C 14.914062 25.730469 14.722656 25.511719 14.632812 25.1875 C 14.382812 24.277344 15.484375 23.519531 16.054688 23.292969 C 16.667969 23.054688 18.546875 23.070312 20.277344 23.144531 C 20.492188 22.996094 20.675781 22.863281 20.820312 22.757812 C 21.007812 22.621094 21.152344 22.515625 21.246094 22.457031 C 23.363281 21.027344 25.503906 19.558594 27.574219 18.132812 L 28.976562 17.167969 C 29.554688 16.769531 30.132812 16.367188 30.710938 15.964844 C 32.53125 14.695312 34.410156 13.382812 36.339844 12.226562 C 36.425781 12.179688 36.535156 12.203125 36.585938 12.285156 C 36.640625 12.371094 36.613281 12.480469 36.527344 12.53125 C 34.609375 13.679688 32.734375 14.988281 30.921875 16.253906 C 30.339844 16.65625 29.761719 17.058594 29.179688 17.460938 L 27.78125 18.421875 C 25.710938 19.847656 23.570312 21.320312 21.445312 22.75 C 21.359375 22.808594 21.214844 22.910156 21.03125 23.042969 C 20.972656 23.085938 20.914062 23.128906 20.851562 23.171875 C 20.941406 23.175781 21.027344 23.183594 21.109375 23.1875 C 23.097656 23.296875 30.917969 23.230469 39.199219 23.160156 C 45.84375 23.105469 52.648438 23.046875 56.507812 23.082031 C 55.234375 22.292969 53.40625 21.132812 51.34375 19.828125 C 46.886719 17 41.832031 13.796875 40.105469 12.859375 C 38.507812 11.992188 37.925781 11.511719 37.804688 10.957031 C 37.691406 10.433594 38.050781 9.90625 38.5 9.320312 C 38.519531 9.296875 39.347656 8.390625 40.164062 7.367188 C 41.25 6.003906 41.167969 4.90625 41.164062 4.894531 C 41.164062 3.054688 39.660156 1.570312 37.8125 1.570312 C 35.960938 1.570312 34.457031 3.054688 34.457031 4.878906 C 34.457031 4.976562 34.375 5.054688 34.277344 5.054688 C 34.179688 5.054688 34.097656 4.976562 34.097656 4.878906 C 34.097656 2.859375 35.765625 1.214844 37.8125 1.214844 C 39.859375 1.214844 41.523438 2.859375 41.523438 4.878906 C 41.527344 4.910156 41.628906 6.101562 40.445312 7.585938 C 39.621094 8.621094 38.785156 9.535156 38.777344 9.542969 C 38.320312 10.144531 38.082031 10.542969 38.15625 10.882812 C 38.25 11.308594 38.824219 11.761719 40.277344 12.546875 C 42.019531 13.492188 47.078125 16.699219 51.539062 19.527344 C 53.886719 21.015625 55.933594 22.3125 57.195312 23.089844 C 58.480469 23.109375 59.339844 23.140625 59.609375 23.191406 C 60.257812 23.308594 60.707031 23.601562 60.785156 23.953125 C 60.824219 24.136719 60.753906 24.308594 60.589844 24.421875 C 60.160156 24.722656 59.046875 24.640625 57.207031 23.515625 C 57.167969 23.492188 57.128906 23.464844 57.085938 23.441406 C 53.390625 23.394531 46.207031 23.453125 39.203125 23.515625 C 30.914062 23.585938 23.085938 23.648438 21.089844 23.539062 C 20.847656 23.527344 20.613281 23.515625 20.386719 23.503906 C 18.664062 24.71875 16.765625 25.890625 15.617188 25.890625 " fill-opacity="1" fill-rule="nonzero"/></g><g fill="#5b3e40" fill-opacity="1"><g transform="translate(2.661289, 22.761046)"><g><path d="M 0.9375 -2.21875 L 0.9375 -7.125 L 0.078125 -7.125 L 0.078125 -7.40625 L 0.9375 -7.40625 L 0.9375 -9.421875 L 3.828125 -10.125 L 3.828125 -7.40625 L 5.84375 -7.40625 L 5.84375 -7.125 L 3.828125 -7.125 L 3.828125 -1.890625 C 3.828125 -1.398438 3.875 -1.039062 3.96875 -0.8125 C 4.070312 -0.582031 4.28125 -0.46875 4.59375 -0.46875 C 4.90625 -0.46875 5.175781 -0.625 5.40625 -0.9375 C 5.644531 -1.25 5.796875 -1.671875 5.859375 -2.203125 L 6.125 -2.171875 C 6.039062 -1.460938 5.8125 -0.894531 5.4375 -0.46875 C 5.070312 -0.0507812 4.457031 0.15625 3.59375 0.15625 C 2.726562 0.15625 2.066406 -0.015625 1.609375 -0.359375 C 1.160156 -0.703125 0.9375 -1.320312 0.9375 -2.21875 Z M 0.9375 -2.21875 "/></g></g></g><g fill="#5b3e40" fill-opacity="1"><g transform="translate(8.79313, 22.761046)"><g><path d="M 0.15625 -11.671875 L 3.90625 -11.671875 L 3.90625 -5.96875 C 4.070312 -6.445312 4.328125 -6.832031 4.671875 -7.125 C 5.015625 -7.414062 5.53125 -7.5625 6.21875 -7.5625 C 7.832031 -7.5625 8.640625 -6.695312 8.640625 -4.96875 L 8.640625 -0.28125 L 9.515625 -0.28125 L 9.515625 0 L 5.109375 0 L 5.109375 -0.28125 L 5.75 -0.28125 L 5.75 -5.34375 C 5.75 -5.957031 5.707031 -6.351562 5.625 -6.53125 C 5.539062 -6.71875 5.390625 -6.8125 5.171875 -6.8125 C 4.835938 -6.8125 4.539062 -6.59375 4.28125 -6.15625 C 4.03125 -5.726562 3.90625 -5.203125 3.90625 -4.578125 L 3.90625 -0.28125 L 4.578125 -0.28125 L 4.578125 0 L 0.15625 0 L 0.15625 -0.28125 L 1.015625 -0.28125 L 1.015625 -11.390625 L 0.15625 -11.390625 Z M 0.15625 -11.671875 "/></g></g></g><g fill="#5b3e40" fill-opacity="1"><g transform="translate(18.379967, 22.761046)"><g><path d="M 4.25 0.15625 C 2.90625 0.15625 1.898438 -0.1875 1.234375 -0.875 C 0.566406 -1.570312 0.234375 -2.535156 0.234375 -3.765625 C 0.234375 -4.992188 0.609375 -5.929688 1.359375 -6.578125 C 2.109375 -7.234375 3.066406 -7.5625 4.234375 -7.5625 C 6.585938 -7.5625 7.71875 -6.378906 7.625 -4.015625 L 3.234375 -4.015625 L 3.234375 -3.40625 C 3.234375 -2.394531 3.363281 -1.628906 3.625 -1.109375 C 3.882812 -0.585938 4.335938 -0.328125 4.984375 -0.328125 C 6.179688 -0.328125 6.96875 -0.96875 7.34375 -2.25 L 7.625 -2.203125 C 7.425781 -1.460938 7.070312 -0.882812 6.5625 -0.46875 C 6.050781 -0.0507812 5.28125 0.15625 4.25 0.15625 Z M 3.25 -4.328125 L 4.859375 -4.328125 L 4.859375 -5.09375 C 4.859375 -5.925781 4.804688 -6.492188 4.703125 -6.796875 C 4.609375 -7.109375 4.410156 -7.265625 4.109375 -7.265625 C 3.816406 -7.265625 3.597656 -7.097656 3.453125 -6.765625 C 3.316406 -6.441406 3.25 -5.882812 3.25 -5.09375 Z M 3.25 -4.328125 "/></g></g></g><g fill="#5b3e40" fill-opacity="1"><g transform="translate(26.410499, 22.761046)"><g><path d="M 2.046875 0.15625 C 1.597656 0.15625 1.257812 0.0234375 1.03125 -0.234375 C 0.8125 -0.503906 0.703125 -0.828125 0.703125 -1.203125 C 0.703125 -1.585938 0.816406 -1.90625 1.046875 -2.15625 C 1.285156 -2.414062 1.613281 -2.546875 2.03125 -2.546875 C 2.457031 -2.546875 2.796875 -2.4375 3.046875 -2.21875 C 3.296875 -2.007812 3.421875 -1.6875 3.421875 -1.25 C 3.421875 -0.8125 3.300781 -0.46875 3.0625 -0.21875 C 2.832031 0.03125 2.492188 0.15625 2.046875 0.15625 Z M 2.046875 0.15625 "/></g></g></g><g fill="#5b3e40" fill-opacity="1"><g transform="translate(30.534706, 22.761046)"><g><path d="M 4.515625 -7.28125 C 4.054688 -7.28125 3.726562 -7.03125 3.53125 -6.53125 C 3.332031 -6.039062 3.234375 -5.21875 3.234375 -4.0625 L 3.234375 -3.25 C 3.234375 -2.226562 3.347656 -1.492188 3.578125 -1.046875 C 3.804688 -0.597656 4.226562 -0.375 4.84375 -0.375 C 5.457031 -0.375 5.941406 -0.582031 6.296875 -1 C 6.660156 -1.414062 6.894531 -1.882812 7 -2.40625 L 7.28125 -2.375 C 7.082031 -1.488281 6.71875 -0.847656 6.1875 -0.453125 C 5.65625 -0.046875 4.914062 0.15625 3.96875 0.15625 C 2.757812 0.15625 1.832031 -0.164062 1.1875 -0.8125 C 0.550781 -1.46875 0.234375 -2.421875 0.234375 -3.671875 C 0.234375 -4.921875 0.597656 -5.878906 1.328125 -6.546875 C 2.054688 -7.222656 3.078125 -7.5625 4.390625 -7.5625 C 5.316406 -7.5625 6.019531 -7.378906 6.5 -7.015625 C 6.988281 -6.660156 7.234375 -6.210938 7.234375 -5.671875 C 7.234375 -5.140625 7.113281 -4.75 6.875 -4.5 C 6.644531 -4.25 6.328125 -4.125 5.921875 -4.125 C 5.515625 -4.125 5.1875 -4.234375 4.9375 -4.453125 C 4.6875 -4.671875 4.5625 -4.992188 4.5625 -5.421875 C 4.5625 -5.609375 4.585938 -5.789062 4.640625 -5.96875 L 5.15625 -5.96875 C 5.226562 -6.175781 5.265625 -6.363281 5.265625 -6.53125 C 5.265625 -7.03125 5.015625 -7.28125 4.515625 -7.28125 Z M 4.515625 -7.28125 "/></g></g></g><g fill="#5b3e40" fill-opacity="1"><g transform="translate(38.051657, 22.761046)"><g><path d="M 0.09375 -11.671875 L 3.90625 -11.671875 L 3.90625 -0.28125 L 4.78125 -0.28125 L 4.78125 0 L 0.15625 0 L 0.15625 -0.28125 L 1.015625 -0.28125 L 1.015625 -11.390625 L 0.09375 -11.390625 Z M 0.09375 -11.671875 "/></g></g></g><g fill="#5b3e40" fill-opacity="1"><g transform="translate(42.96958, 22.761046)"><g><path d="M 5.1875 -3.0625 L 5.1875 -4.390625 C 5.1875 -5.390625 5.128906 -6.117188 5.015625 -6.578125 C 4.910156 -7.046875 4.660156 -7.28125 4.265625 -7.28125 C 4.035156 -7.28125 3.847656 -7.210938 3.703125 -7.078125 C 3.566406 -6.953125 3.46875 -6.738281 3.40625 -6.4375 C 3.3125 -5.976562 3.265625 -5.269531 3.265625 -4.3125 L 3.265625 -3.09375 C 3.265625 -1.96875 3.296875 -1.289062 3.359375 -1.0625 C 3.429688 -0.832031 3.503906 -0.644531 3.578125 -0.5 C 3.691406 -0.25 3.914062 -0.125 4.25 -0.125 C 4.65625 -0.125 4.921875 -0.359375 5.046875 -0.828125 C 5.140625 -1.160156 5.1875 -1.90625 5.1875 -3.0625 Z M 4.21875 0.15625 C 2.914062 0.15625 1.929688 -0.175781 1.265625 -0.84375 C 0.609375 -1.507812 0.28125 -2.460938 0.28125 -3.703125 C 0.28125 -4.941406 0.632812 -5.894531 1.34375 -6.5625 C 2.050781 -7.226562 3.046875 -7.5625 4.328125 -7.5625 C 5.617188 -7.5625 6.582031 -7.253906 7.21875 -6.640625 C 7.851562 -6.023438 8.171875 -5.082031 8.171875 -3.8125 C 8.171875 -1.164062 6.851562 0.15625 4.21875 0.15625 Z M 4.21875 0.15625 "/></g></g></g><g fill="#5b3e40" fill-opacity="1"><g transform="translate(51.420314, 22.761046)"><g><path d="M 0.515625 0.15625 L 0.515625 -2.625 L 0.703125 -2.625 C 0.972656 -1.726562 1.332031 -1.097656 1.78125 -0.734375 C 2.238281 -0.367188 2.8125 -0.1875 3.5 -0.1875 C 4.5625 -0.1875 5.09375 -0.523438 5.09375 -1.203125 C 5.09375 -1.492188 4.960938 -1.710938 4.703125 -1.859375 C 4.296875 -2.078125 3.773438 -2.25 3.140625 -2.375 C 2.429688 -2.5625 1.84375 -2.8125 1.375 -3.125 C 0.800781 -3.5 0.515625 -4.085938 0.515625 -4.890625 C 0.515625 -5.703125 0.757812 -6.347656 1.25 -6.828125 C 1.75 -7.316406 2.414062 -7.5625 3.25 -7.5625 C 3.757812 -7.5625 4.285156 -7.441406 4.828125 -7.203125 C 5.023438 -7.117188 5.175781 -7.078125 5.28125 -7.078125 C 5.382812 -7.078125 5.472656 -7.113281 5.546875 -7.1875 C 5.617188 -7.257812 5.707031 -7.394531 5.8125 -7.59375 L 5.96875 -7.59375 L 5.96875 -5.21875 L 5.796875 -5.21875 C 5.265625 -6.5625 4.441406 -7.234375 3.328125 -7.234375 C 2.835938 -7.234375 2.472656 -7.144531 2.234375 -6.96875 C 2.003906 -6.800781 1.890625 -6.585938 1.890625 -6.328125 C 1.890625 -6.171875 1.921875 -6.050781 1.984375 -5.96875 C 2.054688 -5.882812 2.113281 -5.820312 2.15625 -5.78125 C 2.195312 -5.738281 2.265625 -5.691406 2.359375 -5.640625 C 2.453125 -5.597656 2.53125 -5.5625 2.59375 -5.53125 C 2.65625 -5.507812 2.75 -5.476562 2.875 -5.4375 C 3.007812 -5.394531 3.109375 -5.367188 3.171875 -5.359375 C 3.878906 -5.179688 4.390625 -5.023438 4.703125 -4.890625 C 5.015625 -4.765625 5.3125 -4.609375 5.59375 -4.421875 C 6.15625 -4.023438 6.4375 -3.390625 6.4375 -2.515625 C 6.4375 -1.640625 6.175781 -0.972656 5.65625 -0.515625 C 5.144531 -0.0664062 4.4375 0.15625 3.53125 0.15625 C 2.882812 0.15625 2.265625 0.00390625 1.671875 -0.296875 C 1.546875 -0.378906 1.445312 -0.421875 1.375 -0.421875 C 1.144531 -0.421875 0.921875 -0.226562 0.703125 0.15625 Z M 0.515625 0.15625 "/></g></g></g><g fill="#5b3e40" fill-opacity="1"><g transform="translate(58.174679, 22.761046)"><g><path d="M 4.25 0.15625 C 2.90625 0.15625 1.898438 -0.1875 1.234375 -0.875 C 0.566406 -1.570312 0.234375 -2.535156 0.234375 -3.765625 C 0.234375 -4.992188 0.609375 -5.929688 1.359375 -6.578125 C 2.109375 -7.234375 3.066406 -7.5625 4.234375 -7.5625 C 6.585938 -7.5625 7.71875 -6.378906 7.625 -4.015625 L 3.234375 -4.015625 L 3.234375 -3.40625 C 3.234375 -2.394531 3.363281 -1.628906 3.625 -1.109375 C 3.882812 -0.585938 4.335938 -0.328125 4.984375 -0.328125 C 6.179688 -0.328125 6.96875 -0.96875 7.34375 -2.25 L 7.625 -2.203125 C 7.425781 -1.460938 7.070312 -0.882812 6.5625 -0.46875 C 6.050781 -0.0507812 5.28125 0.15625 4.25 0.15625 Z M 3.25 -4.328125 L 4.859375 -4.328125 L 4.859375 -5.09375 C 4.859375 -5.925781 4.804688 -6.492188 4.703125 -6.796875 C 4.609375 -7.109375 4.410156 -7.265625 4.109375 -7.265625 C 3.816406 -7.265625 3.597656 -7.097656 3.453125 -6.765625 C 3.316406 -6.441406 3.25 -5.882812 3.25 -5.09375 Z M 3.25 -4.328125 "/></g></g></g><g fill="#5b3e40" fill-opacity="1"><g transform="translate(66.205209, 22.761046)"><g><path d="M 0.9375 -2.21875 L 0.9375 -7.125 L 0.078125 -7.125 L 0.078125 -7.40625 L 0.9375 -7.40625 L 0.9375 -9.421875 L 3.828125 -10.125 L 3.828125 -7.40625 L 5.84375 -7.40625 L 5.84375 -7.125 L 3.828125 -7.125 L 3.828125 -1.890625 C 3.828125 -1.398438 3.875 -1.039062 3.96875 -0.8125 C 4.070312 -0.582031 4.28125 -0.46875 4.59375 -0.46875 C 4.90625 -0.46875 5.175781 -0.625 5.40625 -0.9375 C 5.644531 -1.25 5.796875 -1.671875 5.859375 -2.203125 L 6.125 -2.171875 C 6.039062 -1.460938 5.8125 -0.894531 5.4375 -0.46875 C 5.070312 -0.0507812 4.457031 0.15625 3.59375 0.15625 C 2.726562 0.15625 2.066406 -0.015625 1.609375 -0.359375 C 1.160156 -0.703125 0.9375 -1.320312 0.9375 -2.21875 Z M 0.9375 -2.21875 "/></g></g></g></svg>